<?xml version="1.0" standalone="no"?>
<!DOCTYPE svg PUBLIC "-//W3C//DTD SVG 20010904//EN"
 "http://www.w3.org/TR/2001/REC-SVG-20010904/DTD/svg10.dtd">
<svg version="1.0" xmlns="http://www.w3.org/2000/svg"
 width="1280.000000pt" height="1254.000000pt" viewBox="0 0 1280.000000 1254.000000"
 preserveAspectRatio="xMidYMid meet">
<metadata>
Created by potrace 1.15, written by Peter Selinger 2001-2017
</metadata>
<g transform="translate(0.000000,1254.000000) scale(0.100000,-0.100000)"
fill="#000000" stroke="none">
<path d="M6399 11946 c-54 -13 -85 -37 -308 -241 -252 -230 -410 -373 -546
-495 -71 -63 -190 -171 -266 -240 -75 -69 -221 -201 -325 -295 -103 -93 -242
-219 -309 -280 -67 -60 -179 -162 -250 -225 -71 -63 -190 -171 -265 -240 -75
-69 -221 -201 -325 -295 -104 -93 -246 -222 -315 -285 -70 -63 -184 -167 -255
-230 -71 -63 -185 -167 -255 -230 -69 -63 -213 -194 -320 -290 -106 -96 -250
-227 -319 -290 -70 -63 -187 -169 -261 -235 -74 -66 -188 -169 -255 -230 -66
-60 -143 -130 -170 -154 -28 -25 -97 -88 -155 -141 -58 -53 -127 -116 -155
-141 -27 -24 -102 -91 -165 -149 -64 -58 -176 -159 -250 -225 -331 -297 -325
-290 -336 -360 -10 -58 -10 -65 1 -125 6 -35 19 -56 59 -95 43 -43 59 -52 106
-60 32 -6 234 -8 490 -5 478 5 466 4 539 70 18 17 34 30 37 30 2 0 4 -1315 4
-2922 0 -3155 -3 -2974 50 -3048 12 -17 42 -42 68 -57 l47 -28 4425 -3 c2434
-2 4448 0 4476 3 96 11 171 83 193 183 8 39 11 842 11 2964 l0 2911 23 -19
c12 -11 42 -33 66 -50 l44 -29 437 -5 c449 -5 508 -2 565 33 42 26 79 82 94
145 22 91 -12 181 -99 257 -19 16 -91 82 -160 145 -69 63 -186 169 -260 235
-74 66 -188 170 -255 230 -173 157 -498 452 -634 575 -64 58 -179 161 -256
230 -76 69 -198 179 -270 245 -72 66 -216 197 -320 290 -263 236 -311 280
-381 344 -33 31 -118 108 -189 171 -71 63 -188 169 -260 235 -148 135 -236
215 -480 435 -93 84 -210 190 -260 235 -89 82 -294 267 -581 524 -82 74 -181
164 -219 200 -39 36 -131 120 -205 186 -74 66 -189 170 -255 230 -688 625
-650 592 -725 612 -53 14 -60 14 -121 -1z m178 -324 c59 -54 249 -226 422
-382 173 -157 412 -373 531 -480 118 -107 290 -262 380 -344 213 -193 1050
-950 1199 -1086 110 -99 695 -628 941 -850 63 -58 185 -167 270 -245 85 -77
274 -248 420 -380 146 -132 315 -285 376 -340 61 -55 307 -278 547 -495 l437
-395 -391 -3 -390 -2 -33 27 c-18 16 -239 215 -491 443 -252 228 -485 440
-519 470 -34 30 -268 242 -521 471 -253 229 -584 528 -735 665 -151 136 -327
295 -390 353 -216 196 -1231 1114 -1795 1624 -170 154 -324 293 -340 309 l-31
28 -345 -313 c-190 -171 -410 -371 -490 -443 -79 -72 -221 -200 -315 -285 -93
-85 -381 -345 -639 -579 -607 -550 -1106 -1001 -1695 -1534 -261 -236 -563
-508 -670 -606 -107 -97 -307 -279 -445 -403 l-250 -226 -392 -1 c-216 0 -393
2 -393 4 0 3 240 222 706 642 121 109 472 427 780 705 613 555 638 577 1159
1049 197 179 528 478 735 665 1073 970 1432 1296 1820 1648 234 212 428 386
432 386 4 1 56 -43 115 -97z m206 -1314 c172 -156 362 -327 422 -382 61 -55
650 -588 1310 -1185 660 -597 1458 -1319 1773 -1604 l572 -518 0 -2979 0
-2980 -4395 0 -4395 0 0 2980 0 2979 148 134 c81 74 392 356 692 627 300 271
610 552 690 624 80 73 334 303 565 511 870 788 1184 1072 1635 1480 254 231
506 459 559 507 53 48 100 87 104 88 4 0 148 -127 320 -282z"/>
<path d="M4981 6813 c-13 -68 -48 -250 -56 -293 -3 -16 -14 -74 -24 -127 -34
-177 -35 -181 -14 -186 10 -3 61 -13 113 -22 52 -9 111 -20 130 -25 19 -4 55
-11 80 -15 25 -3 65 -10 90 -16 25 -5 92 -18 150 -29 118 -22 146 -27 210 -39
25 -5 86 -17 135 -26 50 -9 124 -23 165 -31 41 -8 102 -19 135 -24 33 -6 103
-19 155 -30 52 -10 147 -28 210 -40 63 -11 135 -25 160 -30 25 -5 97 -19 160
-30 63 -12 158 -30 210 -40 52 -10 147 -28 210 -40 63 -11 135 -25 160 -30 25
-5 74 -15 110 -21 66 -11 134 -24 180 -33 14 -3 75 -15 135 -26 61 -11 130
-24 155 -29 25 -6 86 -17 135 -26 83 -15 331 -62 450 -85 28 -5 86 -17 129
-25 l79 -15 286 282 c157 155 287 286 289 289 3 8 -17 15 -61 23 -48 8 -250
46 -297 56 -25 5 -97 19 -160 30 -63 12 -158 30 -210 40 -52 10 -147 28 -210
40 -63 11 -135 25 -160 30 -25 5 -97 18 -160 30 -108 19 -160 29 -270 51 -25
5 -94 18 -155 29 -60 11 -132 25 -160 30 -27 5 -99 19 -160 30 -60 11 -121 22
-135 25 -14 3 -74 14 -135 25 -60 12 -130 25 -155 30 -25 5 -97 19 -160 30
-63 12 -158 30 -210 40 -52 10 -147 28 -210 40 -63 11 -135 25 -160 30 -25 5
-97 19 -160 30 -63 12 -158 30 -210 40 -52 10 -147 28 -210 40 -63 11 -135 25
-160 30 -25 5 -97 19 -160 30 -63 11 -134 25 -157 30 -83 19 -89 17 -102 -47z"/>
<path d="M4860 6126 c0 -14 -9 -69 -19 -123 -20 -101 -21 -107 -40 -208 -13
-68 -17 -88 -32 -165 -43 -213 -52 -192 94 -219 67 -12 140 -26 162 -31 22 -5
58 -12 80 -15 22 -3 60 -10 85 -15 25 -6 97 -19 160 -30 63 -11 133 -25 155
-29 58 -13 135 -28 265 -51 63 -12 135 -25 160 -30 25 -5 97 -19 160 -31 63
-12 120 -22 125 -24 6 -1 31 -5 58 -10 l47 -7 0 -265 0 -265 -59 -64 c-64 -68
-94 -131 -105 -224 l-7 -55 -96 -60 c-53 -33 -110 -69 -127 -80 -17 -11 -124
-79 -238 -150 -114 -72 -306 -192 -425 -267 -120 -76 -240 -151 -268 -168 -27
-17 -124 -77 -215 -134 l-165 -104 -3 254 -2 254 -155 0 -155 0 0 -780 0 -780
155 0 155 0 0 269 0 269 85 53 c103 65 365 231 440 279 59 38 340 215 380 240
54 34 330 208 475 300 85 54 209 132 275 173 l120 75 55 -14 c78 -22 189 -13
263 20 78 34 128 75 170 139 114 171 75 407 -86 533 l-47 37 0 217 c0 203 1
218 18 214 71 -15 300 -59 527 -100 103 -19 152 -28 305 -58 69 -14 154 -30
190 -36 36 -7 97 -18 135 -25 39 -7 99 -18 135 -24 36 -7 121 -23 190 -36 69
-14 148 -30 175 -35 72 -14 167 -30 181 -30 6 0 15 15 18 33 3 17 8 43 11 57
3 14 9 50 15 80 6 30 12 66 15 80 3 14 14 75 25 135 12 61 27 142 35 180 23
119 27 155 18 155 -4 0 -46 7 -93 16 -47 8 -121 22 -165 29 -44 8 -116 22
-160 30 -44 9 -118 23 -165 31 -47 9 -103 20 -125 24 -57 12 -189 36 -265 49
-36 7 -99 18 -140 27 -41 8 -100 19 -130 25 -30 6 -75 15 -100 20 -25 5 -94
18 -155 29 -60 11 -132 25 -160 30 -27 5 -102 19 -165 30 -63 12 -158 30 -210
40 -52 10 -147 28 -210 40 -63 11 -135 25 -160 30 -25 5 -97 19 -160 30 -63
12 -158 30 -210 40 -52 10 -147 28 -210 40 -63 11 -137 25 -165 30 -233 46
-276 54 -340 64 -22 4 -58 11 -80 16 -80 18 -258 50 -281 50 -19 0 -24 -5 -24
-24z"/>
</g>
</svg>
