<?xml version="1.0" standalone="no"?>
<!DOCTYPE svg PUBLIC "-//W3C//DTD SVG 20010904//EN"
 "http://www.w3.org/TR/2001/REC-SVG-20010904/DTD/svg10.dtd">
<svg version="1.0" xmlns="http://www.w3.org/2000/svg"
 width="1280.000000pt" height="1254.000000pt" viewBox="0 0 1280.000000 1254.000000"
 preserveAspectRatio="xMidYMid meet">
<metadata>
Created by potrace 1.15, written by Peter Selinger 2001-2017
</metadata>
<g transform="translate(0.000000,1254.000000) scale(0.100000,-0.100000)"
fill="#000000" stroke="none">
<path d="M6370 12041 c-81 -22 -108 -41 -305 -221 -248 -227 -423 -386 -550
-500 -64 -58 -179 -161 -254 -230 -76 -69 -220 -199 -321 -290 -101 -91 -217
-196 -259 -235 -122 -112 -190 -173 -321 -290 -68 -60 -187 -168 -265 -240
-79 -71 -225 -204 -325 -295 -101 -91 -213 -192 -249 -225 -37 -33 -107 -96
-156 -140 -49 -44 -121 -109 -160 -145 -39 -36 -154 -139 -254 -230 -101 -91
-245 -221 -320 -290 -75 -69 -197 -180 -271 -246 -74 -67 -147 -132 -161 -145
-14 -13 -81 -73 -149 -134 -68 -60 -185 -166 -260 -235 -75 -69 -219 -199
-320 -290 -101 -91 -217 -196 -260 -235 -42 -38 -117 -106 -165 -150 -49 -44
-121 -109 -160 -145 -40 -36 -127 -114 -194 -175 -67 -60 -134 -125 -147 -143
-14 -18 -35 -68 -46 -112 -20 -78 -20 -82 -3 -157 27 -118 95 -198 203 -237
54 -19 83 -21 476 -24 388 -3 449 0 531 23 20 6 20 1 20 -2822 0 -2826 0
-2828 21 -2901 36 -129 116 -209 237 -240 56 -14 491 -16 4462 -19 l4400 -3
85 21 c97 25 150 58 202 127 73 99 68 -140 68 3016 0 1554 2 2826 5 2826 2 0
30 -7 62 -15 46 -12 133 -15 458 -15 352 0 408 3 468 18 127 34 203 112 234
243 9 41 16 78 15 83 -2 5 -9 37 -16 72 -16 77 -66 154 -140 216 -28 24 -107
95 -176 158 -69 63 -146 133 -171 155 -76 67 -340 305 -414 374 -39 36 -153
140 -255 231 -101 91 -245 221 -320 290 -75 69 -195 177 -265 240 -71 63 -186
167 -255 230 -70 63 -209 189 -310 280 -100 91 -244 221 -319 290 -76 69 -195
177 -266 240 -71 63 -186 167 -255 230 -70 63 -212 192 -315 285 -103 94 -250
226 -325 295 -75 69 -192 175 -260 235 -68 61 -185 166 -261 235 -75 69 -221
202 -325 295 -103 94 -244 222 -313 285 -69 63 -131 119 -138 125 -42 36 -257
229 -367 330 -155 143 -302 271 -333 292 -26 17 -156 53 -187 52 -12 0 -50 -8
-86 -18z m339 -530 c47 -42 146 -132 221 -201 75 -69 222 -201 325 -295 104
-93 250 -226 326 -295 75 -69 190 -172 254 -230 65 -58 179 -161 255 -230 75
-69 219 -199 320 -290 100 -91 244 -221 319 -290 76 -69 193 -174 261 -235 68
-60 180 -162 249 -225 69 -63 146 -133 171 -154 25 -22 97 -88 160 -146 63
-59 131 -120 150 -136 19 -16 62 -54 95 -85 82 -76 177 -163 330 -299 71 -63
190 -171 266 -240 75 -69 219 -199 319 -290 101 -91 238 -214 305 -275 66 -60
181 -164 255 -230 73 -66 195 -176 270 -245 277 -252 496 -449 523 -470 15
-12 27 -24 27 -28 0 -4 -181 -5 -403 -2 l-403 5 -79 70 c-43 39 -135 122 -205
185 -69 63 -184 167 -254 230 -71 63 -188 169 -261 235 -72 66 -216 197 -320
290 -103 94 -245 222 -315 285 -69 63 -184 167 -254 230 -71 63 -190 171 -265
240 -277 252 -425 386 -476 430 -29 25 -106 95 -171 155 -66 61 -180 164 -254
230 -74 66 -191 172 -260 235 -69 63 -213 194 -320 290 -106 96 -248 225 -314
285 -67 61 -182 164 -256 230 -74 66 -193 174 -265 240 -190 175 -505 458
-542 490 l-33 27 -123 -114 c-68 -62 -208 -189 -312 -283 -104 -93 -223 -201
-265 -240 -42 -38 -116 -106 -165 -150 -49 -44 -119 -107 -155 -140 -36 -33
-151 -136 -255 -230 -104 -93 -245 -222 -314 -285 -70 -63 -175 -160 -236
-214 -60 -54 -128 -115 -150 -135 -22 -20 -105 -95 -184 -166 -80 -72 -201
-182 -270 -245 -69 -63 -171 -155 -226 -205 -55 -49 -129 -116 -165 -150 -36
-33 -128 -116 -205 -185 -77 -68 -147 -131 -156 -140 -9 -8 -76 -69 -149 -135
-74 -66 -188 -170 -254 -230 -165 -150 -297 -269 -521 -470 -104 -93 -246
-222 -315 -285 -69 -64 -191 -175 -271 -247 l-147 -132 -406 -3 c-372 -3 -404
-2 -388 13 20 18 85 78 347 314 103 94 249 226 325 295 75 69 192 175 260 235
68 61 186 166 261 235 75 69 219 199 319 290 101 91 240 217 310 280 69 63
182 165 250 225 68 61 158 142 200 180 96 90 153 141 385 350 104 94 250 226
325 295 76 69 190 172 255 230 64 58 179 161 255 230 75 69 221 202 325 295
103 94 242 220 309 281 67 60 139 126 161 145 21 19 71 63 110 99 39 36 154
139 255 230 101 91 245 221 320 290 130 119 227 207 425 385 49 44 122 111
162 148 l73 68 83 -72 c45 -40 120 -107 166 -148z m-171 -973 c38 -35 155
-142 262 -238 107 -96 248 -224 314 -285 65 -60 140 -128 165 -149 25 -22 75
-67 111 -100 36 -34 151 -137 255 -231 104 -93 243 -219 309 -280 65 -60 137
-126 160 -145 23 -19 100 -89 172 -155 72 -66 186 -169 254 -230 68 -60 185
-166 260 -235 76 -69 220 -199 320 -290 101 -91 243 -219 315 -285 72 -66 187
-169 255 -230 68 -60 185 -166 260 -235 75 -69 219 -199 320 -290 101 -91 245
-221 320 -290 75 -69 169 -153 208 -188 l72 -63 0 -2980 0 -2979 -4405 0
-4405 0 0 2979 0 2979 137 124 c75 67 196 177 268 243 73 66 215 194 316 285
101 91 215 195 254 231 79 73 344 313 414 374 25 22 103 91 172 155 69 63 210
192 314 285 104 94 221 199 260 235 39 36 111 101 160 145 50 44 117 105 150
136 33 30 81 73 106 95 25 21 99 89 165 149 66 61 207 189 314 285 107 96 224
202 260 235 59 54 135 122 325 295 34 30 148 134 255 230 107 96 251 227 320
290 160 147 209 190 215 190 3 0 36 -28 73 -62z"/>
<path d="M5050 3660 c-374 -31 -663 -95 -895 -200 -11 -5 -58 -25 -105 -45
-100 -44 -153 -69 -442 -208 -231 -112 -231 -112 -348 -127 -41 -5 -93 -12
-115 -15 -91 -12 -213 -27 -255 -32 -25 -2 -57 -9 -72 -15 -34 -13 -72 -70
-87 -130 -22 -94 -41 -276 -41 -403 0 -130 0 -130 -28 -157 -28 -26 -65 -117
-57 -141 2 -6 6 -39 9 -72 2 -33 8 -90 12 -126 5 -55 3 -72 -11 -97 -17 -29
-17 -31 2 -63 20 -35 116 -119 168 -147 17 -8 73 -22 125 -29 52 -7 127 -18
165 -24 39 -5 120 -16 180 -25 61 -8 153 -21 205 -30 52 -8 146 -17 207 -20
l113 -7 10 -36 c44 -165 211 -318 398 -365 133 -34 334 -18 464 37 107 45 217
146 265 245 l27 55 107 -6 c107 -6 108 -6 128 19 l21 26 1092 -7 c601 -4 1253
-10 1448 -14 195 -4 367 -4 381 0 14 4 52 10 85 13 l59 7 24 -46 c31 -60 141
-162 216 -202 33 -17 96 -44 140 -59 70 -23 96 -26 205 -27 109 0 135 4 203
27 134 45 248 135 307 242 23 43 32 51 76 62 52 14 191 35 339 52 234 26 261
32 435 104 l85 35 6 133 c4 73 10 176 14 229 l8 95 -30 35 c-17 19 -34 50 -38
69 -17 82 -117 261 -177 317 -120 113 -864 264 -1596 325 l-143 11 -92 55
c-228 136 -368 211 -722 386 -341 170 -425 208 -485 222 -19 4 -39 9 -45 10
-146 33 -274 50 -475 64 -145 10 -1344 10 -1470 0z m895 -157 c4 -32 8 -65 10
-73 2 -8 8 -40 13 -70 70 -384 72 -405 45 -426 -23 -17 -185 -18 -448 -4 -104
6 -274 13 -376 16 l-186 6 -11 112 c-21 207 -42 391 -47 403 -6 17 1 20 100
37 188 32 406 47 786 54 l106 2 8 -57z m615 27 c177 -16 305 -45 480 -108 123
-44 333 -162 482 -272 53 -39 58 -50 26 -50 -70 -2 -143 -83 -134 -148 3 -18
15 -46 27 -64 l23 -31 -120 6 c-65 4 -291 14 -501 22 -395 15 -427 19 -465 61
-19 22 -27 40 -78 189 -21 61 -61 175 -89 255 -28 79 -51 148 -51 153 0 11
230 4 400 -13z m-1661 -147 c7 -49 15 -108 18 -133 4 -25 5 -49 4 -54 -1 -5 3
-32 8 -60 5 -28 12 -80 16 -115 l6 -64 -251 6 c-237 6 -255 8 -293 29 -51 29
-82 86 -82 150 0 39 5 52 33 81 36 37 159 113 249 154 58 26 248 91 269 92 7
1 16 -33 23 -86z m-2007 -445 c85 -58 116 -145 112 -318 -1 -58 -2 -111 -3
-117 -1 -10 -35 -13 -132 -13 l-132 0 7 113 c12 180 17 218 39 287 10 33 44
80 56 80 3 0 27 -14 53 -32z m1986 -204 c18 -5 22 -13 20 -33 l-3 -26 -150 0
c-140 0 -150 1 -153 19 -7 36 24 46 147 46 64 0 126 -3 139 -6z m1767 -74 l0
-25 -146 -3 c-121 -2 -148 0 -159 13 -10 12 -10 18 0 30 11 13 38 15 159 13
l146 -3 0 -25z m3392 -202 c29 -29 68 -81 87 -116 l35 -63 -259 1 c-221 1
-260 3 -260 16 0 26 79 173 100 184 11 6 68 14 127 19 60 4 110 9 113 10 3 0
29 -23 57 -51z m-1011 -308 c84 -41 160 -114 199 -193 41 -84 49 -222 19 -311
-77 -229 -323 -344 -547 -257 -83 32 -185 130 -223 213 -26 58 -29 73 -29 173
0 103 2 114 32 175 39 81 102 146 181 188 80 43 122 52 218 48 67 -3 93 -9
150 -36z m-4508 -42 c94 -35 173 -107 223 -202 33 -63 41 -100 41 -186 0 -256
-220 -447 -472 -408 -132 21 -243 100 -307 221 -37 71 -38 73 -38 187 0 113 1
116 36 185 99 191 318 276 517 203z"/>
</g>
</svg>
