<?xml version="1.0" standalone="no"?>
<!DOCTYPE svg PUBLIC "-//W3C//DTD SVG 20010904//EN"
 "http://www.w3.org/TR/2001/REC-SVG-20010904/DTD/svg10.dtd">
<svg version="1.0" xmlns="http://www.w3.org/2000/svg"
 width="1280.000000pt" height="1254.000000pt" viewBox="0 0 1280.000000 1254.000000"
 preserveAspectRatio="xMidYMid meet">
<metadata>
Created by potrace 1.15, written by Peter Selinger 2001-2017
</metadata>
<g transform="translate(0.000000,1254.000000) scale(0.100000,-0.100000)"
fill="#000000" stroke="none">
<path d="M6399 11946 c-54 -13 -85 -37 -308 -241 -252 -230 -410 -373 -546
-495 -71 -63 -190 -171 -266 -240 -75 -69 -221 -201 -325 -295 -103 -93 -242
-219 -309 -280 -67 -60 -179 -162 -250 -225 -71 -63 -190 -171 -265 -240 -75
-69 -221 -201 -325 -295 -104 -93 -246 -222 -315 -285 -70 -63 -184 -167 -255
-230 -71 -63 -185 -167 -255 -230 -69 -63 -213 -194 -320 -290 -106 -96 -250
-227 -319 -290 -70 -63 -187 -169 -261 -235 -74 -66 -188 -169 -255 -230 -66
-60 -143 -130 -170 -154 -28 -25 -97 -88 -155 -141 -58 -53 -127 -116 -155
-141 -27 -24 -102 -91 -165 -149 -64 -58 -176 -159 -250 -225 -331 -297 -325
-290 -336 -360 -10 -58 -10 -65 1 -125 6 -35 19 -56 59 -95 43 -43 59 -52 106
-60 32 -6 234 -8 490 -5 478 5 466 4 539 70 18 17 34 30 37 30 2 0 4 -1315 4
-2922 0 -3155 -3 -2974 50 -3048 12 -17 42 -42 68 -57 l47 -28 4425 -3 c2434
-2 4448 0 4476 3 96 11 171 83 193 183 8 39 11 842 11 2964 l0 2911 23 -19
c12 -11 42 -33 66 -50 l44 -29 437 -5 c449 -5 508 -2 565 33 42 26 79 82 94
145 22 91 -12 181 -99 257 -19 16 -91 82 -160 145 -69 63 -186 169 -260 235
-74 66 -188 170 -255 230 -173 157 -498 452 -634 575 -64 58 -179 161 -256
230 -76 69 -198 179 -270 245 -72 66 -216 197 -320 290 -263 236 -311 280
-381 344 -33 31 -118 108 -189 171 -71 63 -188 169 -260 235 -148 135 -236
215 -480 435 -93 84 -210 190 -260 235 -89 82 -294 267 -581 524 -82 74 -181
164 -219 200 -39 36 -131 120 -205 186 -74 66 -189 170 -255 230 -688 625
-650 592 -725 612 -53 14 -60 14 -121 -1z m178 -324 c59 -54 249 -226 422
-382 173 -157 412 -373 531 -480 118 -107 290 -262 380 -344 213 -193 1050
-950 1199 -1086 110 -99 695 -628 941 -850 63 -58 185 -167 270 -245 85 -77
274 -248 420 -380 146 -132 315 -285 376 -340 61 -55 307 -278 547 -495 l437
-395 -391 -3 -390 -2 -33 27 c-18 16 -239 215 -491 443 -252 228 -485 440
-519 470 -34 30 -268 242 -521 471 -253 229 -584 528 -735 665 -151 136 -327
295 -390 353 -216 196 -1231 1114 -1795 1624 -170 154 -324 293 -340 309 l-31
28 -345 -313 c-190 -171 -410 -371 -490 -443 -79 -72 -221 -200 -315 -285 -93
-85 -381 -345 -639 -579 -607 -550 -1106 -1001 -1695 -1534 -261 -236 -563
-508 -670 -606 -107 -97 -307 -279 -445 -403 l-250 -226 -392 -1 c-216 0 -393
2 -393 4 0 3 240 222 706 642 121 109 472 427 780 705 613 555 638 577 1159
1049 197 179 528 478 735 665 1073 970 1432 1296 1820 1648 234 212 428 386
432 386 4 1 56 -43 115 -97z m206 -1314 c172 -156 362 -327 422 -382 61 -55
650 -588 1310 -1185 660 -597 1458 -1319 1773 -1604 l572 -518 0 -2979 0
-2980 -4395 0 -4395 0 0 2980 0 2979 148 134 c81 74 392 356 692 627 300 271
610 552 690 624 80 73 334 303 565 511 870 788 1184 1072 1635 1480 254 231
506 459 559 507 53 48 100 87 104 88 4 0 148 -127 320 -282z"/>
<path d="M8885 5370 c-33 -10 -150 -44 -260 -75 -217 -61 -229 -65 -415 -120
-69 -20 -179 -51 -245 -70 -66 -18 -160 -45 -210 -60 -120 -35 -299 -86 -680
-195 -55 -15 -156 -45 -225 -65 -69 -20 -179 -51 -245 -70 -117 -33 -254 -73
-345 -100 -25 -7 -103 -30 -175 -50 -71 -19 -137 -38 -146 -41 -11 -3 -32 17
-67 65 -60 79 -193 205 -290 272 -160 111 -380 197 -572 224 -43 6 -307 7
-335 1 -11 -2 -40 -7 -65 -11 -55 -8 -187 -42 -215 -55 -48 -22 -142 -63 -162
-71 -35 -13 -162 -98 -223 -148 -221 -183 -363 -405 -445 -696 -35 -124 -49
-343 -31 -480 18 -134 43 -229 92 -351 20 -49 39 -91 43 -94 3 -3 15 -24 26
-47 11 -24 23 -43 28 -43 4 0 7 -5 7 -11 0 -20 111 -161 183 -231 164 -161
347 -270 550 -327 168 -47 204 -53 330 -56 383 -8 726 129 977 391 130 136
149 163 245 346 74 142 122 185 238 217 45 12 120 33 167 46 47 13 103 27 125
31 22 3 46 11 53 17 16 13 8 53 -23 122 -39 84 -40 95 -13 95 42 0 60 22 62
76 3 97 60 135 158 107 29 -8 68 -17 85 -20 31 -5 34 -3 52 41 24 55 90 128
134 149 33 16 43 15 214 -8 l51 -7 25 48 c53 105 119 164 182 164 16 0 63 -10
103 -21 85 -26 85 -26 154 74 70 104 79 109 178 105 l85 -3 17 35 c10 19 34
71 54 115 66 148 75 164 103 169 86 15 197 -18 286 -87 23 -17 55 -45 110 -92
81 -70 79 -70 144 -46 79 28 100 27 182 -14 43 -22 78 -34 89 -30 18 6 72 79
204 280 32 50 84 127 114 171 49 75 54 85 47 120 -11 65 -37 105 -85 132 -25
14 -74 42 -110 62 -36 20 -83 47 -105 60 -82 48 -140 80 -145 79 -3 -1 -32 -9
-65 -19z m-4530 -1473 c62 -30 102 -63 136 -114 79 -114 27 -321 -100 -402
-68 -44 -98 -53 -180 -52 -90 1 -157 28 -217 90 -74 73 -92 139 -70 246 17 80
54 144 109 188 59 48 84 59 147 67 73 8 126 1 175 -23z"/>
</g>
</svg>
