<?xml version="1.0" standalone="no"?>
<!DOCTYPE svg PUBLIC "-//W3C//DTD SVG 20010904//EN"
 "http://www.w3.org/TR/2001/REC-SVG-20010904/DTD/svg10.dtd">
<svg version="1.0" xmlns="http://www.w3.org/2000/svg"
 width="1280.000000pt" height="1254.000000pt" viewBox="0 0 1280.000000 1254.000000"
 preserveAspectRatio="xMidYMid meet">
<metadata>
Created by potrace 1.15, written by Peter Selinger 2001-2017
</metadata>
<g transform="translate(0.000000,1254.000000) scale(0.100000,-0.100000)"
fill="#000000" stroke="none">
<path d="M6399 11946 c-54 -13 -85 -37 -308 -241 -252 -230 -410 -373 -546
-495 -71 -63 -190 -171 -266 -240 -75 -69 -221 -201 -325 -295 -103 -93 -242
-219 -309 -280 -67 -60 -179 -162 -250 -225 -71 -63 -190 -171 -265 -240 -75
-69 -221 -201 -325 -295 -104 -93 -246 -222 -315 -285 -70 -63 -184 -167 -255
-230 -71 -63 -185 -167 -255 -230 -69 -63 -213 -194 -320 -290 -106 -96 -250
-227 -319 -290 -70 -63 -187 -169 -261 -235 -74 -66 -188 -169 -255 -230 -66
-60 -143 -130 -170 -154 -28 -25 -97 -88 -155 -141 -58 -53 -127 -116 -155
-141 -27 -24 -102 -91 -165 -149 -64 -58 -176 -159 -250 -225 -331 -297 -325
-290 -336 -360 -10 -58 -10 -65 1 -125 6 -35 19 -56 59 -95 43 -43 59 -52 106
-60 32 -6 234 -8 490 -5 478 5 466 4 539 70 18 17 34 30 37 30 2 0 4 -1315 4
-2922 0 -3155 -3 -2974 50 -3048 12 -17 42 -42 68 -57 l47 -28 4425 -3 c2434
-2 4448 0 4476 3 96 11 171 83 193 183 8 39 11 842 11 2964 l0 2911 23 -19
c12 -11 42 -33 66 -50 l44 -29 437 -5 c449 -5 508 -2 565 33 42 26 79 82 94
145 22 91 -12 181 -99 257 -19 16 -91 82 -160 145 -69 63 -186 169 -260 235
-74 66 -188 170 -255 230 -173 157 -498 452 -634 575 -64 58 -179 161 -256
230 -76 69 -198 179 -270 245 -72 66 -216 197 -320 290 -263 236 -311 280
-381 344 -33 31 -118 108 -189 171 -71 63 -188 169 -260 235 -148 135 -236
215 -480 435 -93 84 -210 190 -260 235 -89 82 -294 267 -581 524 -82 74 -181
164 -219 200 -39 36 -131 120 -205 186 -74 66 -189 170 -255 230 -688 625
-650 592 -725 612 -53 14 -60 14 -121 -1z m178 -324 c59 -54 249 -226 422
-382 173 -157 412 -373 531 -480 118 -107 290 -262 380 -344 213 -193 1050
-950 1199 -1086 110 -99 695 -628 941 -850 63 -58 185 -167 270 -245 85 -77
274 -248 420 -380 146 -132 315 -285 376 -340 61 -55 307 -278 547 -495 l437
-395 -391 -3 -390 -2 -33 27 c-18 16 -239 215 -491 443 -252 228 -485 440
-519 470 -34 30 -268 242 -521 471 -253 229 -584 528 -735 665 -151 136 -327
295 -390 353 -216 196 -1231 1114 -1795 1624 -170 154 -324 293 -340 309 l-31
28 -345 -313 c-190 -171 -410 -371 -490 -443 -79 -72 -221 -200 -315 -285 -93
-85 -381 -345 -639 -579 -607 -550 -1106 -1001 -1695 -1534 -261 -236 -563
-508 -670 -606 -107 -97 -307 -279 -445 -403 l-250 -226 -392 -1 c-216 0 -393
2 -393 4 0 3 240 222 706 642 121 109 472 427 780 705 613 555 638 577 1159
1049 197 179 528 478 735 665 1073 970 1432 1296 1820 1648 234 212 428 386
432 386 4 1 56 -43 115 -97z m206 -1314 c172 -156 362 -327 422 -382 61 -55
650 -588 1310 -1185 660 -597 1458 -1319 1773 -1604 l572 -518 0 -2979 0
-2980 -4395 0 -4395 0 0 2980 0 2979 148 134 c81 74 392 356 692 627 300 271
610 552 690 624 80 73 334 303 565 511 870 788 1184 1072 1635 1480 254 231
506 459 559 507 53 48 100 87 104 88 4 0 148 -127 320 -282z"/>
<path d="M6390 8917 c-47 -22 -80 -49 -100 -82 -19 -31 -20 -49 -20 -429 0
-274 3 -404 11 -419 60 -117 209 -143 307 -53 52 47 52 47 52 469 l0 394 -26
39 c-31 45 -47 59 -93 79 -39 18 -96 18 -131 2z"/>
<path d="M4599 8431 c-74 -41 -118 -125 -104 -200 3 -20 24 -65 45 -101 21
-36 57 -99 81 -140 23 -41 59 -104 79 -140 20 -36 59 -103 85 -150 74 -132
101 -166 148 -189 56 -27 117 -27 170 0 46 24 58 36 87 91 32 60 26 114 -20
191 -22 36 -40 69 -40 73 0 4 -6 15 -14 23 -7 9 -29 45 -48 81 -61 113 -150
266 -218 375 -43 69 -88 98 -158 102 -42 2 -66 -2 -93 -16z"/>
<path d="M8164 8435 c-17 -8 -43 -27 -58 -42 -22 -24 -176 -278 -176 -291 0
-2 -8 -16 -18 -30 -11 -15 -37 -61 -60 -103 -22 -42 -60 -107 -83 -145 -34
-55 -43 -81 -47 -126 -5 -72 1 -98 35 -139 58 -69 163 -89 238 -44 48 27 78
71 210 305 127 225 165 291 191 330 84 131 -7 302 -158 299 -24 0 -57 -7 -74
-14z"/>
<path d="M6235 7484 c-131 -11 -366 -52 -420 -74 -11 -4 -51 -17 -90 -28 -246
-70 -543 -227 -780 -411 -110 -85 -354 -336 -441 -453 -118 -159 -253 -395
-304 -533 -4 -11 -13 -33 -20 -50 -37 -91 -80 -241 -106 -370 -36 -178 -47
-292 -47 -500 0 -258 22 -430 88 -660 14 -49 27 -97 29 -105 29 -106 208 -483
259 -545 4 -5 42 -57 83 -115 93 -128 383 -420 498 -500 161 -113 214 -179
235 -294 7 -38 11 -259 11 -615 0 -306 4 -592 9 -637 36 -305 259 -558 566
-640 39 -11 179 -14 639 -14 l590 0 80 25 c198 60 378 215 466 401 46 98 62
166 70 304 4 69 13 146 19 171 9 35 9 55 -1 90 -17 60 -17 458 0 517 11 37 10
54 -4 110 -22 86 -14 267 15 340 28 70 76 137 122 169 300 208 492 391 661
630 88 124 190 312 242 448 15 39 31 79 35 90 44 103 92 299 123 495 15 98 15
562 0 660 -19 119 -39 218 -67 320 -31 116 -28 106 -60 190 -7 19 -20 53 -28
75 -23 61 -93 207 -134 277 -35 61 -136 220 -154 242 -5 6 -39 49 -75 94 -81
102 -253 275 -354 357 -337 272 -749 454 -1175 520 -97 15 -476 27 -580 19z
m450 -385 c104 -14 242 -38 280 -49 146 -44 245 -80 330 -118 375 -171 683
-442 911 -802 43 -67 154 -293 154 -312 0 -8 4 -18 9 -23 7 -8 45 -124 56
-170 1 -5 5 -17 8 -25 34 -86 66 -353 67 -546 0 -94 -1 -177 -4 -185 -2 -8 -7
-39 -10 -69 -17 -163 -70 -365 -144 -540 -90 -215 -218 -405 -391 -584 -87
-89 -258 -227 -352 -284 -53 -32 -171 -160 -211 -228 -69 -119 -104 -235 -114
-381 l-7 -103 -827 0 -827 0 -6 113 c-4 61 -11 126 -16 142 -5 17 -17 57 -27
90 -24 77 -93 195 -152 258 -26 27 -99 86 -162 131 -140 99 -370 325 -455 446
-159 225 -250 413 -311 633 -14 51 -29 108 -35 127 -54 198 -54 706 1 895 4
17 22 80 40 140 37 131 67 205 135 340 386 760 1228 1211 2060 1104z m585
-4914 l0 -115 -830 0 -830 0 0 115 0 115 830 0 830 0 0 -115z m-3 -551 c-8
-79 -50 -155 -122 -222 -107 -100 -83 -97 -710 -97 l-540 0 -60 29 c-119 58
-207 179 -222 304 l-6 42 833 0 833 0 -6 -56z"/>
<path d="M3305 7138 c-94 -52 -132 -166 -85 -258 17 -34 75 -90 93 -90 3 0 39
-20 79 -44 40 -23 125 -73 188 -110 63 -36 122 -71 130 -76 60 -38 181 -99
207 -105 67 -14 163 37 199 106 23 45 18 140 -9 180 -22 33 -85 80 -177 131
-75 42 -109 62 -255 148 -213 126 -222 130 -290 130 -33 0 -69 -6 -80 -12z"/>
<path d="M9408 7112 c-231 -128 -536 -312 -564 -339 -111 -110 -29 -318 124
-316 74 1 61 -5 307 139 94 55 177 103 185 107 8 4 44 25 79 47 34 22 66 40
69 40 17 0 75 57 92 90 24 46 26 129 6 168 -16 31 -61 74 -93 91 -12 6 -48 11
-80 11 -48 0 -69 -7 -125 -38z"/>
<path d="M2869 5381 c-119 -37 -179 -151 -134 -258 20 -48 41 -71 87 -94 34
-17 63 -19 343 -19 332 0 334 0 387 57 15 15 32 41 37 56 14 36 14 108 0 144
-15 40 -80 97 -126 111 -46 14 -550 16 -594 3z"/>
<path d="M9452 5377 c-54 -17 -118 -86 -127 -136 -11 -66 2 -127 36 -165 56
-65 64 -66 404 -66 207 0 313 4 328 11 66 34 107 101 107 174 0 82 -38 137
-120 174 -42 19 -64 21 -320 20 -163 -1 -288 -5 -308 -12z"/>
</g>
</svg>
