<?xml version="1.0" standalone="no"?>
<!DOCTYPE svg PUBLIC "-//W3C//DTD SVG 20010904//EN"
 "http://www.w3.org/TR/2001/REC-SVG-20010904/DTD/svg10.dtd">
<svg version="1.0" xmlns="http://www.w3.org/2000/svg"
 width="1280.000000pt" height="1254.000000pt" viewBox="0 0 1280.000000 1254.000000"
 preserveAspectRatio="xMidYMid meet">
<metadata>
Created by potrace 1.15, written by Peter Selinger 2001-2017
</metadata>
<g transform="translate(0.000000,1254.000000) scale(0.100000,-0.100000)"
fill="#000000" stroke="none">
<path d="M6399 11946 c-54 -13 -85 -37 -308 -241 -252 -230 -410 -373 -546
-495 -71 -63 -190 -171 -266 -240 -75 -69 -221 -201 -325 -295 -103 -93 -242
-219 -309 -280 -67 -60 -179 -162 -250 -225 -71 -63 -190 -171 -265 -240 -75
-69 -221 -201 -325 -295 -104 -93 -246 -222 -315 -285 -70 -63 -184 -167 -255
-230 -71 -63 -185 -167 -255 -230 -69 -63 -213 -194 -320 -290 -106 -96 -250
-227 -319 -290 -70 -63 -187 -169 -261 -235 -74 -66 -188 -169 -255 -230 -66
-60 -143 -130 -170 -154 -28 -25 -97 -88 -155 -141 -58 -53 -127 -116 -155
-141 -27 -24 -102 -91 -165 -149 -64 -58 -176 -159 -250 -225 -331 -297 -325
-290 -336 -360 -10 -58 -10 -65 1 -125 6 -35 19 -56 59 -95 43 -43 59 -52 106
-60 32 -6 234 -8 490 -5 478 5 466 4 539 70 18 17 34 30 37 30 2 0 4 -1315 4
-2922 0 -3155 -3 -2974 50 -3048 12 -17 42 -42 68 -57 l47 -28 4425 -3 c2434
-2 4448 0 4476 3 96 11 171 83 193 183 8 39 11 842 11 2964 l0 2911 23 -19
c12 -11 42 -33 66 -50 l44 -29 437 -5 c449 -5 508 -2 565 33 42 26 79 82 94
145 22 91 -12 181 -99 257 -19 16 -91 82 -160 145 -69 63 -186 169 -260 235
-74 66 -188 170 -255 230 -173 157 -498 452 -634 575 -64 58 -179 161 -256
230 -76 69 -198 179 -270 245 -72 66 -216 197 -320 290 -263 236 -311 280
-381 344 -33 31 -118 108 -189 171 -71 63 -188 169 -260 235 -148 135 -236
215 -480 435 -93 84 -210 190 -260 235 -89 82 -294 267 -581 524 -82 74 -181
164 -219 200 -39 36 -131 120 -205 186 -74 66 -189 170 -255 230 -688 625
-650 592 -725 612 -53 14 -60 14 -121 -1z m178 -324 c59 -54 249 -226 422
-382 173 -157 412 -373 531 -480 118 -107 290 -262 380 -344 213 -193 1050
-950 1199 -1086 110 -99 695 -628 941 -850 63 -58 185 -167 270 -245 85 -77
274 -248 420 -380 146 -132 315 -285 376 -340 61 -55 307 -278 547 -495 l437
-395 -391 -3 -390 -2 -33 27 c-18 16 -239 215 -491 443 -252 228 -485 440
-519 470 -34 30 -268 242 -521 471 -253 229 -584 528 -735 665 -151 136 -327
295 -390 353 -216 196 -1231 1114 -1795 1624 -170 154 -324 293 -340 309 l-31
28 -345 -313 c-190 -171 -410 -371 -490 -443 -79 -72 -221 -200 -315 -285 -93
-85 -381 -345 -639 -579 -607 -550 -1106 -1001 -1695 -1534 -261 -236 -563
-508 -670 -606 -107 -97 -307 -279 -445 -403 l-250 -226 -392 -1 c-216 0 -393
2 -393 4 0 3 240 222 706 642 121 109 472 427 780 705 613 555 638 577 1159
1049 197 179 528 478 735 665 1073 970 1432 1296 1820 1648 234 212 428 386
432 386 4 1 56 -43 115 -97z m206 -1314 c172 -156 362 -327 422 -382 61 -55
650 -588 1310 -1185 660 -597 1458 -1319 1773 -1604 l572 -518 0 -2979 0
-2980 -4395 0 -4395 0 0 2980 0 2979 148 134 c81 74 392 356 692 627 300 271
610 552 690 624 80 73 334 303 565 511 870 788 1184 1072 1635 1480 254 231
506 459 559 507 53 48 100 87 104 88 4 0 148 -127 320 -282z"/>
<path d="M6080 8705 c-183 -31 -330 -83 -494 -173 -166 -91 -347 -250 -463
-407 -107 -143 -199 -337 -244 -514 -42 -165 -49 -276 -49 -801 l0 -499 -267
-3 c-302 -3 -322 -8 -398 -83 -21 -21 -47 -59 -59 -84 l-21 -46 -3 -2100 c-3
-2319 -7 -2158 61 -2247 18 -24 57 -56 87 -73 l55 -30 2175 0 2175 0 45 23
c60 32 102 73 131 130 l24 47 0 2130 0 2130 -23 42 c-30 58 -86 111 -141 137
-43 19 -66 21 -313 24 l-267 3 -3 562 c-4 536 -5 567 -26 664 -65 300 -211
564 -423 768 -229 220 -487 349 -804 400 -117 19 -643 19 -755 0z m760 -220
c473 -105 834 -427 979 -874 57 -173 61 -226 61 -788 l0 -513 -129 0 -130 0
-3 508 -4 507 -27 99 c-104 385 -378 658 -766 764 -92 25 -106 26 -361 26
-257 0 -268 0 -365 -27 -380 -103 -655 -378 -758 -757 -30 -108 -37 -237 -37
-677 l0 -443 -130 0 -130 0 0 498 c0 273 5 531 10 572 52 400 292 756 645 959
141 81 277 127 454 156 123 20 586 14 691 -10z m-90 -440 c167 -40 312 -118
432 -233 126 -120 205 -252 260 -433 21 -71 22 -91 26 -571 l3 -498 -1010 0
-1011 0 0 454 c0 483 4 541 52 681 113 331 411 572 758 615 109 13 411 4 490
-15z m1724 -1979 c50 -25 97 -72 122 -122 19 -38 19 -83 22 -1954 2 -2106 6
-1964 -58 -2042 -17 -20 -53 -48 -82 -62 l-52 -26 -1965 0 c-1882 0 -1968 1
-2006 19 -50 22 -99 70 -128 125 l-22 41 0 1920 c0 1601 2 1926 14 1959 19 54
77 115 136 143 l50 23 1965 -3 c1921 -2 1966 -2 2004 -21z"/>
<path d="M5295 4918 c-32 -38 -29 -81 11 -115 l25 -23 1124 0 c814 0 1131 3
1149 11 31 15 50 59 41 98 -14 65 64 61 -1186 61 l-1137 0 -27 -32z"/>
<path d="M5299 4021 c-36 -37 -38 -79 -5 -118 l24 -28 1142 0 1142 0 24 28
c32 38 32 90 -1 122 l-24 25 -1136 0 -1137 0 -29 -29z"/>
<path d="M5324 3096 c-73 -32 -64 -133 13 -156 27 -8 362 -10 1149 -8 1066 3
1113 4 1132 22 47 42 35 117 -23 141 -49 21 -2223 22 -2271 1z"/>
</g>
</svg>
