<?xml version="1.0" standalone="no"?>
<!DOCTYPE svg PUBLIC "-//W3C//DTD SVG 20010904//EN"
 "http://www.w3.org/TR/2001/REC-SVG-20010904/DTD/svg10.dtd">
<svg version="1.0" xmlns="http://www.w3.org/2000/svg"
 width="1280.000000pt" height="1254.000000pt" viewBox="0 0 1280.000000 1254.000000"
 preserveAspectRatio="xMidYMid meet">
<metadata>
Created by potrace 1.15, written by Peter Selinger 2001-2017
</metadata>
<g transform="translate(0.000000,1254.000000) scale(0.100000,-0.100000)"
fill="#000000" stroke="none">
<path d="M6399 11946 c-54 -13 -85 -37 -308 -241 -252 -230 -410 -373 -546
-495 -71 -63 -190 -171 -266 -240 -75 -69 -221 -201 -325 -295 -103 -93 -242
-219 -309 -280 -67 -60 -179 -162 -250 -225 -71 -63 -190 -171 -265 -240 -75
-69 -221 -201 -325 -295 -104 -93 -246 -222 -315 -285 -70 -63 -184 -167 -255
-230 -71 -63 -185 -167 -255 -230 -69 -63 -213 -194 -320 -290 -106 -96 -250
-227 -319 -290 -70 -63 -187 -169 -261 -235 -74 -66 -188 -169 -255 -230 -66
-60 -143 -130 -170 -154 -28 -25 -97 -88 -155 -141 -58 -53 -127 -116 -155
-141 -27 -24 -102 -91 -165 -149 -64 -58 -176 -159 -250 -225 -331 -297 -325
-290 -336 -360 -10 -58 -10 -65 1 -125 6 -35 19 -56 59 -95 43 -43 59 -52 106
-60 32 -6 234 -8 490 -5 478 5 466 4 539 70 18 17 34 30 37 30 2 0 4 -1315 4
-2922 0 -3155 -3 -2974 50 -3048 12 -17 42 -42 68 -57 l47 -28 4425 -3 c2434
-2 4448 0 4476 3 96 11 171 83 193 183 8 39 11 842 11 2964 l0 2911 23 -19
c12 -11 42 -33 66 -50 l44 -29 437 -5 c449 -5 508 -2 565 33 42 26 79 82 94
145 22 91 -12 181 -99 257 -19 16 -91 82 -160 145 -69 63 -186 169 -260 235
-74 66 -188 170 -255 230 -173 157 -498 452 -634 575 -64 58 -179 161 -256
230 -76 69 -198 179 -270 245 -72 66 -216 197 -320 290 -263 236 -311 280
-381 344 -33 31 -118 108 -189 171 -71 63 -188 169 -260 235 -148 135 -236
215 -480 435 -93 84 -210 190 -260 235 -89 82 -294 267 -581 524 -82 74 -181
164 -219 200 -39 36 -131 120 -205 186 -74 66 -189 170 -255 230 -688 625
-650 592 -725 612 -53 14 -60 14 -121 -1z m178 -324 c59 -54 249 -226 422
-382 173 -157 412 -373 531 -480 118 -107 290 -262 380 -344 213 -193 1050
-950 1199 -1086 110 -99 695 -628 941 -850 63 -58 185 -167 270 -245 85 -77
274 -248 420 -380 146 -132 315 -285 376 -340 61 -55 307 -278 547 -495 l437
-395 -391 -3 -390 -2 -33 27 c-18 16 -239 215 -491 443 -252 228 -485 440
-519 470 -34 30 -268 242 -521 471 -253 229 -584 528 -735 665 -151 136 -327
295 -390 353 -216 196 -1231 1114 -1795 1624 -170 154 -324 293 -340 309 l-31
28 -345 -313 c-190 -171 -410 -371 -490 -443 -79 -72 -221 -200 -315 -285 -93
-85 -381 -345 -639 -579 -607 -550 -1106 -1001 -1695 -1534 -261 -236 -563
-508 -670 -606 -107 -97 -307 -279 -445 -403 l-250 -226 -392 -1 c-216 0 -393
2 -393 4 0 3 240 222 706 642 121 109 472 427 780 705 613 555 638 577 1159
1049 197 179 528 478 735 665 1073 970 1432 1296 1820 1648 234 212 428 386
432 386 4 1 56 -43 115 -97z m206 -1314 c172 -156 362 -327 422 -382 61 -55
650 -588 1310 -1185 660 -597 1458 -1319 1773 -1604 l572 -518 0 -2979 0
-2980 -4395 0 -4395 0 0 2980 0 2979 148 134 c81 74 392 356 692 627 300 271
610 552 690 624 80 73 334 303 565 511 870 788 1184 1072 1635 1480 254 231
506 459 559 507 53 48 100 87 104 88 4 0 148 -127 320 -282z"/>
<path d="M4158 5689 c-10 -5 -18 -7 -18 -4 0 8 -178 -83 -230 -118 -124 -83
-175 -157 -174 -257 0 -72 14 -103 126 -290 150 -249 153 -437 11 -682 -74
-126 -196 -229 -322 -269 -57 -19 -93 -22 -266 -24 -292 -3 -336 -19 -397
-142 -32 -66 -33 -72 -37 -216 -4 -164 7 -245 44 -317 52 -102 83 -113 370
-121 249 -8 278 -13 386 -70 114 -61 241 -224 296 -381 21 -60 26 -91 26 -178
0 -120 -16 -180 -81 -295 -22 -38 -64 -114 -95 -168 -57 -101 -74 -162 -62
-220 22 -104 138 -208 338 -303 89 -42 195 -56 260 -35 37 13 114 89 140 139
134 260 215 359 348 426 99 49 159 59 329 53 117 -4 155 -9 199 -26 88 -36
112 -51 174 -110 67 -64 111 -125 186 -261 110 -201 154 -236 290 -228 69 4
89 10 182 56 152 76 245 151 287 232 30 57 33 71 27 114 -6 50 -53 152 -111
243 -156 245 -175 434 -64 654 73 144 158 239 261 291 112 57 129 60 379 68
259 7 279 11 337 72 62 65 85 165 80 353 -7 302 -97 387 -392 370 -241 -14
-400 32 -518 149 -91 90 -171 226 -201 343 -42 162 -10 306 115 513 93 154
112 200 112 270 0 72 -17 102 -100 181 -78 72 -144 114 -259 164 -67 29 -91
35 -154 35 -119 0 -163 -38 -272 -230 -75 -133 -134 -220 -177 -259 -83 -76
-195 -123 -331 -139 -176 -22 -347 18 -466 108 -66 50 -125 129 -218 293 -70
125 -123 190 -173 216 -27 14 -162 14 -185 0z m1172 -1169 c173 -44 353 -154
464 -284 111 -130 178 -279 209 -461 19 -116 20 -124 3 -236 -41 -283 -170
-494 -396 -644 -149 -99 -303 -145 -487 -146 -262 -1 -469 84 -648 266 -127
128 -193 247 -242 432 -24 94 -24 300 1 403 22 90 88 235 144 316 53 77 228
244 256 244 4 0 23 11 44 23 57 36 191 85 278 101 105 20 263 14 374 -14z"/>
<path d="M8422 5339 c-87 -11 -144 -46 -171 -104 -19 -41 -21 -62 -20 -188 1
-161 -4 -201 -36 -272 -41 -92 -114 -164 -224 -220 -79 -40 -138 -55 -213 -55
-86 0 -161 27 -295 107 -56 33 -123 66 -148 73 -40 11 -50 11 -87 -6 -62 -28
-96 -60 -149 -142 -73 -112 -95 -182 -90 -285 2 -35 81 -103 192 -167 140 -79
216 -153 248 -237 29 -81 41 -178 30 -260 -21 -166 -81 -258 -221 -339 -29
-17 -86 -50 -126 -73 -91 -53 -121 -94 -123 -171 -1 -60 6 -83 53 -175 71
-139 155 -215 236 -215 46 0 84 17 237 103 121 69 199 89 293 76 159 -22 329
-141 385 -269 33 -75 36 -102 38 -273 1 -169 9 -199 65 -245 97 -80 371 -80
468 0 58 47 66 79 66 252 0 220 23 288 128 389 74 70 199 134 287 145 116 15
179 -5 410 -133 96 -53 145 -58 209 -21 66 38 140 143 191 269 30 73 31 115 5
167 -24 47 -53 69 -189 146 -138 78 -180 117 -224 206 -91 182 -59 419 73 548
28 27 96 75 152 106 203 114 238 174 184 312 -59 150 -146 260 -226 287 -69
23 -84 18 -276 -94 -173 -100 -302 -108 -465 -26 -105 53 -176 122 -221 215
-32 64 -32 67 -38 256 -5 182 -6 192 -30 227 -34 50 -85 76 -172 87 -84 11
-118 11 -206 -1z m218 -1030 c247 -39 444 -206 529 -449 32 -89 40 -277 17
-370 -58 -232 -250 -435 -463 -489 -24 -6 -60 -16 -82 -21 -51 -13 -169 -13
-228 1 -256 60 -422 200 -515 433 -31 78 -32 86 -33 226 0 134 2 151 28 225
111 313 420 497 747 444z"/>
</g>
</svg>
