<?xml version="1.0" standalone="no"?>
<!DOCTYPE svg PUBLIC "-//W3C//DTD SVG 20010904//EN"
 "http://www.w3.org/TR/2001/REC-SVG-20010904/DTD/svg10.dtd">
<svg version="1.0" xmlns="http://www.w3.org/2000/svg"
 width="1280.000000pt" height="1254.000000pt" viewBox="0 0 1280.000000 1254.000000"
 preserveAspectRatio="xMidYMid meet">
<metadata>
Created by potrace 1.15, written by Peter Selinger 2001-2017
</metadata>
<g transform="translate(0.000000,1254.000000) scale(0.100000,-0.100000)"
fill="#000000" stroke="none">
<path d="M6399 11946 c-54 -13 -85 -37 -308 -241 -252 -230 -410 -373 -546
-495 -71 -63 -190 -171 -266 -240 -75 -69 -221 -201 -325 -295 -103 -93 -242
-219 -309 -280 -67 -60 -179 -162 -250 -225 -71 -63 -190 -171 -265 -240 -75
-69 -221 -201 -325 -295 -104 -93 -246 -222 -315 -285 -70 -63 -184 -167 -255
-230 -71 -63 -185 -167 -255 -230 -69 -63 -213 -194 -320 -290 -106 -96 -250
-227 -319 -290 -70 -63 -187 -169 -261 -235 -74 -66 -188 -169 -255 -230 -66
-60 -143 -130 -170 -154 -28 -25 -97 -88 -155 -141 -58 -53 -127 -116 -155
-141 -27 -24 -102 -91 -165 -149 -64 -58 -176 -159 -250 -225 -331 -297 -325
-290 -336 -360 -10 -58 -10 -65 1 -125 6 -35 19 -56 59 -95 43 -43 59 -52 106
-60 32 -6 234 -8 490 -5 478 5 466 4 539 70 18 17 34 30 37 30 2 0 4 -1315 4
-2922 0 -3155 -3 -2974 50 -3048 12 -17 42 -42 68 -57 l47 -28 4425 -3 c2434
-2 4448 0 4476 3 96 11 171 83 193 183 8 39 11 842 11 2964 l0 2911 23 -19
c12 -11 42 -33 66 -50 l44 -29 437 -5 c449 -5 508 -2 565 33 42 26 79 82 94
145 22 91 -12 181 -99 257 -19 16 -91 82 -160 145 -69 63 -186 169 -260 235
-74 66 -188 170 -255 230 -173 157 -498 452 -634 575 -64 58 -179 161 -256
230 -76 69 -198 179 -270 245 -72 66 -216 197 -320 290 -263 236 -311 280
-381 344 -33 31 -118 108 -189 171 -71 63 -188 169 -260 235 -148 135 -236
215 -480 435 -93 84 -210 190 -260 235 -89 82 -294 267 -581 524 -82 74 -181
164 -219 200 -39 36 -131 120 -205 186 -74 66 -189 170 -255 230 -688 625
-650 592 -725 612 -53 14 -60 14 -121 -1z m178 -324 c59 -54 249 -226 422
-382 173 -157 412 -373 531 -480 118 -107 290 -262 380 -344 213 -193 1050
-950 1199 -1086 110 -99 695 -628 941 -850 63 -58 185 -167 270 -245 85 -77
274 -248 420 -380 146 -132 315 -285 376 -340 61 -55 307 -278 547 -495 l437
-395 -391 -3 -390 -2 -33 27 c-18 16 -239 215 -491 443 -252 228 -485 440
-519 470 -34 30 -268 242 -521 471 -253 229 -584 528 -735 665 -151 136 -327
295 -390 353 -216 196 -1231 1114 -1795 1624 -170 154 -324 293 -340 309 l-31
28 -345 -313 c-190 -171 -410 -371 -490 -443 -79 -72 -221 -200 -315 -285 -93
-85 -381 -345 -639 -579 -607 -550 -1106 -1001 -1695 -1534 -261 -236 -563
-508 -670 -606 -107 -97 -307 -279 -445 -403 l-250 -226 -392 -1 c-216 0 -393
2 -393 4 0 3 240 222 706 642 121 109 472 427 780 705 613 555 638 577 1159
1049 197 179 528 478 735 665 1073 970 1432 1296 1820 1648 234 212 428 386
432 386 4 1 56 -43 115 -97z m206 -1314 c172 -156 362 -327 422 -382 61 -55
650 -588 1310 -1185 660 -597 1458 -1319 1773 -1604 l572 -518 0 -2979 0
-2980 -4395 0 -4395 0 0 2980 0 2979 148 134 c81 74 392 356 692 627 300 271
610 552 690 624 80 73 334 303 565 511 870 788 1184 1072 1635 1480 254 231
506 459 559 507 53 48 100 87 104 88 4 0 148 -127 320 -282z"/>
<path d="M6288 8717 c-165 -57 -291 -192 -346 -368 -15 -50 -17 -242 -20
-2424 l-3 -2370 -56 -35 c-78 -49 -229 -201 -287 -290 -61 -92 -118 -218 -146
-325 -36 -135 -38 -350 -5 -508 18 -87 97 -263 160 -357 81 -120 236 -259 367
-329 283 -152 608 -172 901 -55 151 60 229 114 363 248 117 118 122 125 187
256 92 186 117 287 117 477 0 95 -5 164 -16 210 -9 37 -17 75 -19 83 -28 130
-140 325 -259 448 -60 63 -184 162 -218 175 -17 6 -18 29 -18 292 l0 285 185
0 185 0 0 75 0 75 -185 0 -185 0 0 420 0 420 183 2 182 3 3 73 3 72 -186 0
-185 0 0 425 0 425 185 0 185 0 0 70 0 70 -185 0 -185 0 0 420 0 420 183 2
182 3 3 73 3 72 -186 0 -185 0 -1 518 c0 284 -2 524 -4 533 -18 94 -75 211
-133 273 -39 41 -124 103 -169 122 -21 9 -47 21 -58 27 -11 6 -76 12 -145 14
-111 3 -133 1 -192 -20z m306 -197 c52 -22 120 -80 152 -131 57 -91 54 57 54
-2552 l0 -2395 58 -32 c31 -18 86 -54 122 -81 259 -191 385 -520 326 -849 -53
-294 -274 -551 -562 -653 -198 -71 -447 -59 -641 28 -234 107 -409 313 -479
565 -26 92 -27 350 -1 435 70 237 201 409 408 536 l99 61 2 2431 3 2432 28 50
c50 90 117 144 207 170 67 18 161 12 224 -15z"/>
<path d="M6250 4457 l0 -1094 -39 -11 c-51 -16 -143 -66 -206 -112 -147 -108
-260 -299 -290 -489 -41 -257 76 -542 290 -707 292 -224 710 -200 976 57 132
127 202 270 229 464 19 144 -15 307 -97 453 -79 144 -281 309 -410 337 l-33 7
0 1094 0 1094 -210 0 -210 0 0 -1093z"/>
</g>
</svg>
