<?xml version="1.0" standalone="no"?>
<!DOCTYPE svg PUBLIC "-//W3C//DTD SVG 20010904//EN"
 "http://www.w3.org/TR/2001/REC-SVG-20010904/DTD/svg10.dtd">
<svg version="1.0" xmlns="http://www.w3.org/2000/svg"
 width="1280.000000pt" height="1254.000000pt" viewBox="0 0 1280.000000 1254.000000"
 preserveAspectRatio="xMidYMid meet">
<metadata>
Created by potrace 1.15, written by Peter Selinger 2001-2017
</metadata>
<g transform="translate(0.000000,1254.000000) scale(0.100000,-0.100000)"
fill="#000000" stroke="none">
<path d="M6399 11946 c-54 -13 -85 -37 -308 -241 -252 -230 -410 -373 -546
-495 -71 -63 -190 -171 -266 -240 -75 -69 -221 -201 -325 -295 -103 -93 -242
-219 -309 -280 -67 -60 -179 -162 -250 -225 -71 -63 -190 -171 -265 -240 -75
-69 -221 -201 -325 -295 -104 -93 -246 -222 -315 -285 -70 -63 -184 -167 -255
-230 -71 -63 -185 -167 -255 -230 -69 -63 -213 -194 -320 -290 -106 -96 -250
-227 -319 -290 -70 -63 -187 -169 -261 -235 -74 -66 -188 -169 -255 -230 -66
-60 -143 -130 -170 -154 -28 -25 -97 -88 -155 -141 -58 -53 -127 -116 -155
-141 -27 -24 -102 -91 -165 -149 -64 -58 -176 -159 -250 -225 -331 -297 -325
-290 -336 -360 -10 -58 -10 -65 1 -125 6 -35 19 -56 59 -95 43 -43 59 -52 106
-60 32 -6 234 -8 490 -5 478 5 466 4 539 70 18 17 34 30 37 30 2 0 4 -1315 4
-2922 0 -3155 -3 -2974 50 -3048 12 -17 42 -42 68 -57 l47 -28 4425 -3 c2434
-2 4448 0 4476 3 96 11 171 83 193 183 8 39 11 842 11 2964 l0 2911 23 -19
c12 -11 42 -33 66 -50 l44 -29 437 -5 c449 -5 508 -2 565 33 42 26 79 82 94
145 22 91 -12 181 -99 257 -19 16 -91 82 -160 145 -69 63 -186 169 -260 235
-74 66 -188 170 -255 230 -173 157 -498 452 -634 575 -64 58 -179 161 -256
230 -76 69 -198 179 -270 245 -72 66 -216 197 -320 290 -263 236 -311 280
-381 344 -33 31 -118 108 -189 171 -71 63 -188 169 -260 235 -148 135 -236
215 -480 435 -93 84 -210 190 -260 235 -89 82 -294 267 -581 524 -82 74 -181
164 -219 200 -39 36 -131 120 -205 186 -74 66 -189 170 -255 230 -688 625
-650 592 -725 612 -53 14 -60 14 -121 -1z m178 -324 c59 -54 249 -226 422
-382 173 -157 412 -373 531 -480 118 -107 290 -262 380 -344 213 -193 1050
-950 1199 -1086 110 -99 695 -628 941 -850 63 -58 185 -167 270 -245 85 -77
274 -248 420 -380 146 -132 315 -285 376 -340 61 -55 307 -278 547 -495 l437
-395 -391 -3 -390 -2 -33 27 c-18 16 -239 215 -491 443 -252 228 -485 440
-519 470 -34 30 -268 242 -521 471 -253 229 -584 528 -735 665 -151 136 -327
295 -390 353 -216 196 -1231 1114 -1795 1624 -170 154 -324 293 -340 309 l-31
28 -345 -313 c-190 -171 -410 -371 -490 -443 -79 -72 -221 -200 -315 -285 -93
-85 -381 -345 -639 -579 -607 -550 -1106 -1001 -1695 -1534 -261 -236 -563
-508 -670 -606 -107 -97 -307 -279 -445 -403 l-250 -226 -392 -1 c-216 0 -393
2 -393 4 0 3 240 222 706 642 121 109 472 427 780 705 613 555 638 577 1159
1049 197 179 528 478 735 665 1073 970 1432 1296 1820 1648 234 212 428 386
432 386 4 1 56 -43 115 -97z m206 -1314 c172 -156 362 -327 422 -382 61 -55
650 -588 1310 -1185 660 -597 1458 -1319 1773 -1604 l572 -518 0 -2979 0
-2980 -4395 0 -4395 0 0 2980 0 2979 148 134 c81 74 392 356 692 627 300 271
610 552 690 624 80 73 334 303 565 511 870 788 1184 1072 1635 1480 254 231
506 459 559 507 53 48 100 87 104 88 4 0 148 -127 320 -282z"/>
<path d="M6070 6867 c-3 -3 -43 -8 -90 -12 -98 -7 -329 -39 -445 -61 -291 -55
-720 -184 -930 -278 -16 -8 -64 -28 -105 -46 -220 -94 -559 -282 -750 -415
-25 -17 -76 -53 -115 -80 -38 -27 -75 -54 -81 -59 -7 -6 -35 -29 -64 -51 -92
-70 -323 -271 -385 -334 l-59 -61 75 -78 c41 -42 128 -132 194 -199 l120 -122
125 116 c501 464 1105 800 1745 973 277 74 443 106 700 133 156 16 694 16 850
0 371 -39 724 -122 1069 -252 526 -198 1015 -508 1412 -893 72 -71 135 -128
140 -128 5 0 97 88 204 195 l195 195 -70 71 c-179 182 -451 405 -695 571 -387
263 -873 495 -1300 621 -108 32 -272 75 -330 87 -210 44 -290 57 -585 95 -60
8 -818 19 -825 12z"/>
<path d="M6103 5904 c-732 -59 -1410 -313 -2003 -748 -118 -87 -316 -255 -392
-333 l-58 -58 203 -203 203 -202 34 36 c50 52 211 189 311 266 389 296 839
504 1304 603 44 9 98 21 120 26 22 5 76 14 120 19 368 47 759 36 1080 -30 28
-5 75 -15 105 -21 197 -38 516 -152 731 -260 234 -117 430 -244 654 -424 28
-22 103 -92 168 -155 l117 -114 200 199 c110 110 200 205 200 212 0 6 -55 63
-122 126 -501 469 -1072 787 -1710 951 -233 60 -422 90 -688 111 -227 17 -354
17 -577 -1z"/>
<path d="M6090 4940 c-496 -56 -953 -231 -1370 -524 -96 -68 -295 -233 -355
-295 l-39 -41 191 -192 192 -191 88 79 c341 308 733 509 1148 589 17 3 41 7
55 10 104 20 278 35 405 35 376 0 757 -94 1091 -269 216 -114 383 -236 572
-418 36 -35 70 -63 76 -63 6 0 94 83 195 184 l185 185 -45 48 c-160 171 -378
342 -599 473 -325 191 -647 307 -1045 376 -109 18 -621 29 -745 14z"/>
<path d="M6185 3954 c-114 -13 -229 -36 -303 -60 -23 -8 -47 -14 -52 -14 -16
0 -190 -70 -270 -109 -172 -84 -376 -227 -490 -345 l-44 -46 169 -170 169
-169 67 60 c107 95 195 155 319 218 133 68 230 103 367 133 135 29 416 32 548
5 294 -61 523 -180 733 -381 l83 -80 172 172 172 172 -65 65 c-180 182 -464
362 -710 450 -191 68 -477 117 -667 114 -48 -1 -137 -8 -198 -15z"/>
<path d="M6300 3220 c-187 -18 -363 -121 -464 -273 -75 -114 -98 -191 -98
-337 -1 -81 4 -133 16 -175 83 -287 342 -485 636 -485 359 0 659 296 660 652
0 268 -157 489 -415 583 -38 14 -70 25 -70 24 0 0 -16 2 -35 5 -70 10 -157 13
-230 6z"/>
</g>
</svg>
